<svg xmlns="http://www.w3.org/2000/svg" width="400" height="300" viewBox="0 0 400 300">
  <path d="m399.87,114.77c-.17-8.36-.85-19.04-1.86-32.03-1.19-12.99-2.71-24.38-4.75-34.52-2.37-11.39-7.63-21-15.59-28.83-7.97-7.83-17.29-12.28-27.8-13.52C316.81,1.96,266.98,0,200.02,0S83.23,1.96,50.17,5.87c-10.51,1.25-19.83,5.87-27.63,13.52-7.8,7.83-13.05,17.44-15.43,28.83-2.2,10.14-3.9,21.71-5.09,34.52-1.19,12.99-1.7,23.49-1.86,32.03-.17,8.54-.17,20.28-.17,35.23s0,26.69.17,35.23c.17,8.36.85,19.04,1.86,32.03,1.19,12.99,2.71,24.38,4.75,34.52,2.37,11.39,7.63,21,15.59,28.83s17.29,12.28,27.8,13.52c33.05,3.91,82.89,5.87,149.68,5.87s116.79-1.96,149.85-5.87c10.51-1.25,19.83-5.87,27.63-13.52,7.8-7.83,13.05-17.44,15.43-28.83,2.2-10.14,3.9-21.71,5.09-34.52,1.19-12.81,1.7-23.49,1.86-32.03.17-8.36.17-20.11.17-35.23.17-14.95.17-26.69,0-35.23Z"/>
</svg>
