<?xml version="1.0" encoding="UTF-8"?>
<svg xmlns="http://www.w3.org/2000/svg" width="150" height="150" xmlns:xlink="http://www.w3.org/1999/xlink" viewBox="0 0 150 150">
<path fill='#39b54a' d="m33,134c-.38.17-1.04.54-1.42.71-.74-1.63-2.14-8-2.58-9.71-2.61-10.02-1.95-15.28.65-25.24,5.4-20.7,18.66-35.17,36.75-45.72,1.83-1.07,3.71-2.03,6.13-3.35-5.77-.71-22.15,9.65-31.53,19.31-8.03,8.26-14,19-19,27-3.32-6.94-5.81-17.05-4.26-24.39,4.48-21.17,16.62-36.56,37.4-43.85,19.47-6.83,38.72-4.64,57.36,3.6,13.38,5.91,25.02,19.24,30.5,31.64-8-3-15.98-4.9-22.7-3.96-10.92,1.53-18.83,8.76-25.75,16.9-4.42,5.2-8.71,10.53-12.92,15.9-11.87,15.18-27.14,20.28-45.64,15.14-4.5-1.25-5.64.57-6.04,4.3-.95,8.71,3.05,21.71,3.05,21.71Z"/>
</svg>
