<svg xmlns="http://www.w3.org/2000/svg" width="24" height="24" viewBox="0 0 24 24" fill="#1e1e2e">
  <path d="m11.05,1.23c-1.61.36-2.72,1.78-2.63,3.06,2.4.18,4.1.83,5.44,1.95,4.62-1.17,7.48,2.35,8.51,7.01,2.29-6.81-3.67-12.27-9.11-12.27-.79,0-1.67.11-2.21.23Zm-4.9,4.32c-.66.33-1.1.9-1.34,1.51,1.93.81,3.25,2.27,4.1,3.92,5.39.11,7.44,4.77,6.94,9.92,3.66-4.93,1.94-10.59-2.02-13.62-1.38-1.01-3.12-1.68-4.26-1.96-.99-.24-2.21-.37-3.42.23Zm-2.36,2.19c-2.5-.12-3.94,3.72-1.26,4.99,4.81,2.28,4.37,6.5,1.61,10.27,5.31-2.21,6.35-8.04,3.78-11.99-.38-.58-1.12-1.58-1.75-2.13-.67-.6-1.43-1.09-2.38-1.13Z"/>
</svg>
