<svg xmlns="http://www.w3.org/2000/svg" width="24" height="24" viewBox="0 0 24 24">
  <circle cx="12" cy="12" r="5" fill="#989106"/>
  <path d="m11.18,5.09c-2.07.25-4.01,1.09-6.01,2.61-1.37,1.05-2.97,2.66-3.94,3.97l-.24.34.3.41c.77,1.04,2.16,2.49,3.25,3.39,2,1.65,3.94,2.64,5.99,3.02.42.08.65.09,1.47.09,1.04,0,1.32-.04,2.27-.28,1.31-.34,2.82-1.08,4.15-2.04,1.46-1.05,3.13-2.68,4.22-4.11l.36-.48-.3-.4c-.73-.98-2.12-2.44-3.11-3.28-2.07-1.74-4.08-2.76-6.19-3.15-.37-.07-1.87-.13-2.22-.08h0Zm2.03,1.4c2.51.4,5.32,2.26,7.82,5.14.16.19.29.35.29.38,0,.07-.78.96-1.4,1.58-.97.97-2,1.81-2.99,2.43-2.39,1.51-4.58,1.95-6.86,1.36-1.89-.49-4-1.83-5.94-3.76-.64-.63-1.44-1.53-1.44-1.6s.79-.97,1.4-1.58c1.87-1.89,3.81-3.15,5.69-3.72,1.18-.35,2.23-.43,3.43-.23Z" fill="#1e1e2e"/>
  <path d="m12,7s-1.88,2.24-1.88,5,1.88,5,1.88,5c0,0,1.88-2.24,1.88-5s-1.88-5-1.88-5Z" fill="#1e1e2e"/>
</svg>
