<svg xmlns="http://www.w3.org/2000/svg" viewBox="0 0 24 24" fill="#1e1e2e">
	<path d="M1,16.8V7.2h5.9v1.6H2.7v2.3h3.6v1.6H2.7v4.1H1z"/>
	<path d="M8.4,16.8V7.2h2.8c1.1,0,1.8,0,2.1,0.1c0.5,0.1,0.9,0.5,1.2,0.9c0.3,0.5,0.5,1.1,0.5,1.9c0,0.6-0.1,1.1-0.3,1.5
		c-0.2,0.4-0.4,0.7-0.7,1c-0.3,0.2-0.6,0.4-0.9,0.5c-0.4,0.1-1,0.1-1.8,0.1h-1.1v3.6H8.4z M10.1,8.8v2.7h1c0.7,0,1.1-0.1,1.4-0.2
		c0.2-0.1,0.4-0.3,0.5-0.5c0.1-0.2,0.2-0.5,0.2-0.8c0-0.4-0.1-0.6-0.3-0.9c-0.2-0.2-0.4-0.4-0.7-0.4c-0.2,0-0.6-0.1-1.3-0.1H10.1z"/>
	<path d="M16,13.7l1.7-0.2c0.1,0.6,0.3,1.1,0.6,1.4c0.3,0.3,0.7,0.4,1.3,0.4c0.6,0,1-0.1,1.3-0.4c0.3-0.3,0.4-0.6,0.4-0.9
		c0-0.2-0.1-0.4-0.2-0.6c-0.1-0.2-0.3-0.3-0.6-0.4c-0.2-0.1-0.7-0.2-1.4-0.4c-0.9-0.3-1.6-0.6-2-1c-0.5-0.5-0.8-1.2-0.8-1.9
		c0-0.5,0.1-1,0.4-1.4c0.2-0.4,0.6-0.8,1.1-1c0.5-0.2,1-0.3,1.7-0.3c1.1,0,1.9,0.3,2.4,0.8s0.8,1.2,0.9,2.1L21,10
		c-0.1-0.5-0.2-0.9-0.5-1.1c-0.2-0.2-0.6-0.3-1.1-0.3c-0.5,0-0.9,0.1-1.2,0.3C18,9.1,18,9.3,18,9.6c0,0.2,0.1,0.4,0.3,0.6
		c0.2,0.2,0.8,0.4,1.6,0.6c0.8,0.2,1.5,0.5,1.9,0.7c0.4,0.2,0.7,0.6,1,1c0.2,0.4,0.3,0.9,0.3,1.5c0,0.6-0.1,1.1-0.4,1.6
		c-0.3,0.5-0.7,0.8-1.2,1.1c-0.5,0.2-1.1,0.4-1.9,0.4c-1.1,0-1.9-0.3-2.5-0.8C16.4,15.6,16.1,14.8,16,13.7z"/>
</svg>
