<svg xmlns="http://www.w3.org/2000/svg" viewBox="0 0 32 32" fill="#fff">
  <path d="m23.32,25.68c3,3.11,8.45.27,7.6-3.97,0,0-2.05-10.56-2.05-10.56-.65-3.56-3.75-6.15-7.38-6.16h-11.01c-3.63,0-6.74,2.61-7.37,6.19l-2.05,10.51s0,.01,0,.02c-.82,4.24,4.61,7.06,7.61,3.96,0,0,5-5.68,5-5.68h4.62l5.01,5.68Zm-10.42-11.48h-1.2v1.2c0,.66-.54,1.2-1.2,1.2s-1.2-.54-1.2-1.2v-1.2h-1.2c-.66,0-1.2-.54-1.2-1.2s.54-1.2,1.2-1.2h1.2v-1.2c0-.66.54-1.2,1.2-1.2s1.2.54,1.2,1.2v1.2h1.2c1.57,0,1.57,2.39,0,2.4Zm10.9,0h-3.6c-.66,0-1.2-.54-1.2-1.2s.54-1.2,1.2-1.2h3.6c1.57,0,1.57,2.39,0,2.4Z"/>
</svg>