<svg xmlns="http://www.w3.org/2000/svg" width="24" height="24" viewBox="0 0 24 24" fill="#fff">
  <path d="m17.37,19.1c2.2,2.28,6.19.2,5.57-2.91l-1.5-7.74c-.48-2.61-2.75-4.51-5.41-4.51H7.96c-2.66,0-4.94,1.91-5.4,4.53l-1.5,7.7h0c-.6,3.12,3.38,5.19,5.57,2.92l3.66-4.16h3.38l3.67,4.16h.01Zm-7.63-8.41h-.88v.88c0,.48-.4.88-.88.88s-.88-.4-.88-.88v-.88h-.88c-.48,0-.88-.4-.88-.88s.4-.88.88-.88h.88v-.88c0-.48.4-.88.88-.88s.88.4.88.88v.88h.88c1.15,0,1.15,1.75,0,1.76Zm7.98,0h-2.64c-.48,0-.88-.4-.88-.88s.4-.88.88-.88h2.64c1.15,0,1.15,1.75,0,1.76Z"/>
</svg>
