<svg xmlns="http://www.w3.org/2000/svg" width="24" height="24" viewBox="0 0 24 24" fill="#1e1e2e">
  <path d="m22.5,12c0-5.77-4.65-10.44-10.4-10.49-.03,0-.06,0-.1,0-.03,0-.07,0-.1,0,.03,0,.07,0,.1,0C6.2,1.5,1.5,6.2,1.5,12c0,0,0,0,0,0,0,0,0,0,0,0,0,5.77,4.65,10.44,10.4,10.49.03,0,.06,0,.1,0,.03,0,.07,0,.1,0-.03,0-.07,0-.1,0,5.8,0,10.5-4.7,10.5-10.5,0,0,0,0,0,0Zm-3.17-4.2h-3.13c-.23-1.17-.86-2.7-1.51-3.78,2.01.63,3.57,2.03,4.64,3.78Zm-7.33-4.2c.91,1.31,1.6,2.73,2.05,4.2h-4.1c.45-1.45,1.14-2.97,2.05-4.2ZM3.59,9.9h3.67c-.12,1.35-.23,2.83,0,4.2h-3.67c-.17-1.39-.4-2.86,0-4.2Zm.86,6.3h3.24c.43,1.23.8,2.59,1.51,3.67-2-.55-3.72-1.87-4.75-3.67Zm3.34-8.4h-3.24c1.07-1.75,2.62-3.15,4.64-3.78-.45,1.24-1.15,2.5-1.4,3.78Zm4.21,12.6c-.91-1.31-1.6-2.73-2.05-4.2h4.1c-.45,1.54-1.14,2.92-2.05,4.2Zm2.59-6.3h-5.07c-.18-1.37-.18-2.83,0-4.2h5.07c.12,1.35.23,2.83,0,4.2Zm.22,5.77c.6-1.04,1.25-2.57,1.51-3.78h3.13c-1.06,1.84-2.62,3.11-4.64,3.78Zm1.94-5.77c.1-1.38.2-2.82,0-4.2h3.67c.47,1.35.34,2.83,0,4.2h-3.67Z"/>
</svg>
