<svg xmlns="http://www.w3.org/2000/svg" width="24" height="24" viewBox="0 0 24 24" fill="#fff">
  <path d="m3.2,19.7c-.6,0-1.12-.22-1.55-.65s-.65-.95-.65-1.55V6.5c0-.61.22-1.12.65-1.55s.95-.65,1.55-.65h17.6c.6,0,1.12.22,1.55.65s.65.95.65,1.55v11c0,.6-.22,1.12-.65,1.55s-.95.65-1.55.65H3.2Zm0-2.2h17.6V6.5H3.2v11Zm4.4-1.1h8.8v-2.2H7.6v2.2Zm-3.3-3.3h2.2v-2.2h-2.2v2.2Zm3.3,0h2.2v-2.2h-2.2v2.2Zm3.3,0h2.2v-2.2h-2.2v2.2Zm3.3,0h2.2v-2.2h-2.2v2.2Zm3.3,0h2.2v-2.2h-2.2v2.2Zm-13.2-3.3h2.2v-2.2h-2.2v2.2Zm3.3,0h2.2v-2.2h-2.2v2.2Zm3.3,0h2.2v-2.2h-2.2v2.2Zm3.3,0h2.2v-2.2h-2.2v2.2Zm3.3,0h2.2v-2.2h-2.2v2.2Zm-14.3,7.7V6.5v11Z"/>
</svg>
