<svg xmlns="http://www.w3.org/2000/svg" width="24" height="24" viewBox="0 0 24 24" fill="none" stroke="#fff" stroke-width="2">
  <circle cx="12" cy="12" r="3.26"/>
  <path d="m20.29,9.15c-1.85,0-2.61-1.31-1.69-2.92.53-.93.21-2.12-.72-2.66l-1.77-1.02c-.89-.53-2.02-.11-2.45.81-.92,1.61-2.44,1.61-3.37,0-.42-.92-1.54-1.34-2.43-.81l-1.77,1.02c-.93.53-1.25,1.73-.72,2.67.93,1.6.18,2.91-1.68,2.91-1.06,0-1.95.87-1.95,1.95v1.81c0,1.06.87,1.95,1.95,1.95,1.85,0,2.61,1.31,1.68,2.92-.53.93-.21,2.12.72,2.66l1.77,1.02c.89.53,2.02.11,2.45-.81.92-1.61,2.44-1.61,3.37,0,.43.92,1.57,1.34,2.45.81l1.77-1.02c.93-.53,1.25-1.73.72-2.66-.93-1.61-.18-2.92,1.68-2.92,1.06,0,1.95-.87,1.95-1.95v-1.81c0-1.06-.89-1.95-1.96-1.95Z"/>
</svg>
