<svg xmlns="http://www.w3.org/2000/svg" width="24" height="24" viewBox="0 0 24 24" fill="none" stroke="#fff" stroke-width="2">
  <circle cx="12" cy="12" r="3.5"/>
  <path d="m20.9,8.94c-1.99,0-2.8-1.41-1.81-3.13.57-1,.23-2.28-.77-2.85l-1.9-1.09c-.95-.57-2.17-.12-2.63.87-.99,1.73-2.62,1.73-3.62,0-.45-.99-1.65-1.44-2.61-.87,0,0-1.9,1.09-1.9,1.09-1,.57-1.34,1.86-.77,2.86,1,1.72.19,3.12-1.8,3.12-1.14,0-2.09.93-2.09,2.09,0,0,0,1.94,0,1.94,0,1.14.93,2.09,2.09,2.09,1.99,0,2.8,1.41,1.8,3.13-.57,1-.23,2.28.77,2.85l1.9,1.09c.95.57,2.17.12,2.63-.87.99-1.73,2.62-1.73,3.62,0,.46.99,1.68,1.44,2.63.87,0,0,1.9-1.09,1.9-1.09,1-.57,1.34-1.86.77-2.85-1-1.73-.19-3.13,1.8-3.13,1.14,0,2.09-.93,2.09-2.09,0,0,0-1.94,0-1.94-.01-1.14-.95-2.09-2.1-2.09Z"/>
</svg>
