<svg xmlns="http://www.w3.org/2000/svg" viewBox="0 0 24 24" fill="#1e1e2e">
<path d="M17.6,6.3V12l2.8,2.8c0.4,0.4,0.6,0.9,0.6,1.4c0,0.6-0.2,1-0.6,1.4l-2.8,2.8c-0.4,0.4-0.9,0.6-1.4,0.6
	c-0.6,0-1-0.2-1.4-0.6L12,17.6H6.3L17.6,6.3z M12.8,15.6l3.4,3.4l2.8-2.8l-3.4-3.4v-1.7l-4.5,4.5H12.8z M15.3,5.8
	C14,5.1,12.5,4.8,11,5C9.5,5.3,8.2,5.9,7.1,7s-1.8,2.4-2,3.9s0,3,0.8,4.3l-1.4,1.4C3.3,15,2.8,13,3.1,11c0.2-2.1,1.1-3.9,2.6-5.4
	S8.9,3.2,11,3c2.1-0.2,4,0.2,5.8,1.4L15.3,5.8z M12.1,9c-0.4,0-0.8,0.1-1.2,0.2c-0.4,0.1-0.7,0.4-1,0.7c-0.3,0.3-0.5,0.6-0.6,1
	c-0.1,0.4-0.2,0.8-0.2,1.2l-1.7,1.7c-0.3-1-0.3-1.9-0.2-2.9s0.6-1.8,1.3-2.5S10,7.3,11,7.1c1-0.2,1.9-0.1,2.9,0.2L12.1,9z"/>
</svg>
