<svg xmlns="http://www.w3.org/2000/svg" width="24" height="24" viewBox="0 0 24 24">
  <defs>
    <linearGradient id="d" x1="16.33" y1="5.6" x2="16.33" y2="18.45" gradientUnits="userSpaceOnUse">
      <stop offset="0" stop-color="#ff0"/>
      <stop offset="1" stop-color="red"/>
    </linearGradient>
  </defs>
  <path d="m12,2.18C5.94,2.18,1,7.12,1,13.18c0,2.33.73,4.49,1.97,6.27l1.45-.97c-.86-1.22-1.4-2.64-1.59-4.12h1.38v-.88h-1.45c-.08-1.77.76-4.55,2.05-6.13l.85.85.62-.62-.88-.88c1.58-1.61,3.75-2.65,6.17-2.76v1.42h.88v-1.42c2.42.11,4.59,1.15,6.17,2.76l-.88.88.62.62.85-.85c1.29,1.59,2.15,4.23,2.05,6.13h-1.45v.88h1.38c-.19,1.48-.73,2.89-1.59,4.12l1.45.97c1.24-1.78,1.97-3.94,1.97-6.27,0-6.06-4.94-11-11-11h0Zm-6.23,17.88v1.75h12.46v-1.75H5.77Z" fill="#fff"/>
  <path d="m18.69,8.95l-.25.25-1.76-1.75.38-.38c-1.99-1.49-4.23-1.79-4.23-1.79,1.78.98,3.63,3.45,3.87,6.73.15,2.11-1.26,5.21-2.78,6.48h3.7c.91-.93,1.58-2.08,1.94-3.34h-.56v-2.56h.83c-.2-1.95-1.14-3.63-1.14-3.63Z" fill="url(#d)"/>
  <path d="m10.82,13.76c.04.64.57,1.43,1.38,1.28,1-.18,1-1.32.88-1.73l-2.94-8.55.68,9Z" fill="#fff"/>
</svg>
