<svg xmlns="http://www.w3.org/2000/svg" width="24" height="24" viewBox="0 0 24 24">
  <path d="m13.85,2.95l1.95,3.75c.26.51.96,1.02,1.58,1.11l3.53.57c2.24.35,2.77,1.94,1.15,3.5l-2.74,2.64c-.46.45-.73,1.3-.56,1.94l.79,3.28c.63,2.58-.79,3.59-3.17,2.23l-3.3-1.88c-.59-.35-1.58-.35-2.18,0l-3.3,1.88c-2.38,1.34-3.79.35-3.17-2.23l.79-3.28c.13-.6-.1-1.49-.56-1.94l-2.74-2.64c-1.62-1.56-1.09-3.12,1.15-3.5l3.53-.57c.59-.1,1.29-.6,1.55-1.11l1.95-3.75c.96-2.04,2.67-2.04,3.73,0Z" fill="none" stroke="#000"/>
</svg>
