<svg xmlns="http://www.w3.org/2000/svg" viewBox="0 0 24 24" fill="#1e1e2e">
<path d="M14,20c-1.1,0-2-0.4-2.8-1.2C10.4,18,10,17.1,10,16s0.4-2,1.2-2.8C12,12.4,12.9,12,14,12c0.4,0,0.7,0,1.1,0.1
	s0.6,0.2,0.9,0.4V4h6v3h-4v9c0,1.1-0.4,2-1.2,2.8C16,19.6,15.1,20,14,20z M2,16c0-1.7,0.3-3.2,1-4.7s1.5-2.7,2.6-3.8
	s2.4-1.9,3.8-2.6s3-1,4.7-1v2c-1.4,0-2.7,0.3-3.9,0.8S7.8,8,6.9,8.9s-1.6,2-2.2,3.2S4,14.6,4,16H2z M6,16c0-1.1,0.2-2.1,0.6-3.1
	c0.4-1,1-1.8,1.7-2.6C9.1,9.6,9.9,9,10.9,8.6S12.9,8,14,8v2c-1.7,0-3.1,0.6-4.2,1.8S8,14.3,8,16H6z"/>
</svg>
