<?xml version="1.0" encoding="UTF-8"?>
<svg xmlns="http://www.w3.org/2000/svg" width="128" height="128" viewBox="0 0 128 128">
    <path d="m40.46,46.92c-25.49-6.36-36.59,11.58-26.86,23.22,4.93,5.91,1.38,1.14,11.31,10.67,2.44,2.34,3.75,5.11,5.99,8.9,1.28,2.15,4.72,14.46,5.98,17.14,5.87,12.45,20.74,8.41,24.8,3.82,5.87-6.62,6.62-18.37,10.03-26.61,4.04-9.75,10.03-18.28,1.22-28.92-5.05-6.1-11.88-3.08-32.48-8.22Z"/>
    <ellipse cx="81.94" cy="31.58" rx="16.82" ry="13.97" transform="translate(2.87 69.78) rotate(-46.86)"/>
    <ellipse cx="47.73" cy="27.55" rx="15.4" ry="12.57" transform="translate(-.58 54.06) rotate(-58.75)"/>
    <ellipse cx="93.4" cy="94.14" rx="15.4" ry="12.58" transform="translate(-7.87 8.53) rotate(-5.02)"/>
    <ellipse cx="100.65" cy="63.26" rx="17.38" ry="13.23" transform="translate(-10.16 20.22) rotate(-10.93)"/>
</svg>
