<svg xmlns="http://www.w3.org/2000/svg" width="64" height="64" viewBox="0 0 64 64" fill="#e4640a">
  <path d="m0,55.21c0,.99.79,1.79,1.78,1.79h10.04s13.17-14.06,13.17-14.06c-.56-6.04,3.33-9.49,4.54-10.39,4.08-3.08,9.8-3.08,13.9,0l3.86,2.92c.79.59.94,1.7.35,2.5-.58.8-1.7.95-2.49.35l-3.64-2.73c-2.29-1.74-5.38-2.33-8.02-1.21-4.89,2.04-6.43,7.85-3.74,11.89l2.66,3.61h-5.84c-2.85,0-5.23,2.4-5.23,5.36,0,.99.79,1.79,1.78,1.79h33.78c3.87,0,7.1-3.14,7.11-7.03.06-18.63-14.08-33.93-32.17-35.66-.75-4.16-4.36-7.31-8.72-7.31s-7.96,3.15-8.71,7.29c0,0-6.51,2.14-11.01,4.62C1.31,20.06,0,22.24,0,24.64s1.26,4.51,3.31,5.65l15.62,8.82-10.04,10.75h-3.56c-2.94,0-5.33,2.4-5.33,5.36ZM23.11,18.61c-1.47,0-2.67-1.2-2.67-2.68s1.19-2.68,2.67-2.68,2.67,1.2,2.67,2.68-1.19,2.68-2.67,2.68Z"/>
</svg>
