<svg xmlns="http://www.w3.org/2000/svg" viewBox="0 0 512 512" fill="#fff">
	<path d="M41.7,309.7c83.2,106,222.9,65,300.5-64.1l16.5,10c-70.8,108.1-150.9,149.7-249,126.1
		c-19.4,15-47.3,31.4-88.7,44.5c58.1,28,136.1-1.8,191.2-18.6c39.9,5.4,69.7,5.8,103.6,1c-2.6-56.1,55.6-180.9,125.7-169.6
		c-7.1-12.9-14.1-22.1-23.3-31.6l9.2-42.5c-45.6-27.3-7-44.2,13.8-68.4c-25.4-36.6-90-23.9-109.1,8.8c-10.8,15.1-20.5,38.3-34.2,70
		L41.7,309.7z M381.1,93c22.2,0.1,22.2,34.1,0,34.2C358.7,127.1,358.7,93,381.1,93z M453.1,112.3c-8.6,9.7-18.8,17.1-27.4,26.5
		c3.2,5.6,11.4,9.5,16.6,11.4l48.7-16.5L453.1,112.3z M408.7,264.1c-37.8,24.8-73.7,97.4-73.9,140.9
		c85.9-21.3,128.9-69.1,115.8-141.9C437.3,254.9,421.5,256.6,408.7,264.1L408.7,264.1z"/>
</svg>
