<svg xmlns="http://www.w3.org/2000/svg" viewBox="0 0 512 512" fill="#fff">
	<path d="M128.8,117.4l-15.7-8.7l8.6-15.6c-9.8-2.6-20.6-0.5-28.6,6.4L79.8,88L68,101.6l15.3,13.3
		c-1.2,3.9-1.9,8.3-1.9,13.1v21.7H62v18h19.5V192c0,31.1,6.7,48.7,24.5,57.3l-11,17.7l15.3,9.5l13.6-22c6.3,1,13.5,1.4,21.5,1.4
		c21.3-0.1,42.6,0.2,64,0l0.2,18c0,0-8.5,0.1-16.1,0.1v75.1h-25.7v18h25.7v60.6H178v18h15.5v49.4h128v-12.1h13.7v-18h-13.7v-26.5
		H345v-18h-23.6v-104h-26v-18h26v-15.7h15v-18h-15V236H347v-18h-25.5v-81h16v-18h-16V88H298V70h22.3c-1.6-8.6-5-16.8-9.9-24
		l8.9-26.2l-17-5.8l0,0l-5.9,17.2C285.6,22.9,272.1,18,257.5,18c-15.4,0-29.5,5.5-40.5,14.5l-15.6-13.6l-11.8,13.6l15.2,13.2
		c-5.4,7.9-9,16.9-10.5,26.3h-23.3v18h22.4V192h-16c-24.4,0-32-5.8-32-31.9V134h9.1v-18h-10.6c-1.5-5.3-3.9-9.8-6.9-13.4
		L128.8,117.4z M262.8,43.1l0.9,32l-18,0.5l-0.9-32L262.8,43.1L262.8,43.1z M216.2,104.4h32v18h-32V104.4z M270,173.6h32v18h-32
		V173.6z M100.3,184.6h32v18h-32V184.6z M188.9,214.8h32v18h-32V214.8z M409.5,248c-6.6,0-13.2,2.4-17.8,7.3l-12.8-11.1l-11.8,13.6
		l18.4,16v46.3c0,12.2-8,15.9-16.4,15.9h-29.6v48h33l0.1,19.7l18-0.1l-0.1-19.8c28.7-1.7,43-17.6,43-47.8v-18.2H450v-18h-16.5V272
		c0-7.6-2.7-13.4-6.9-17.4l8.8-19.7l-16.4-7.3l0,0L409.5,248z M399.3,311.5l18,0.1l-0.2,32l-18-0.1L399.3,311.5L399.3,311.5z
		 M246.8,331.1l0.9,32l-18,0.5l-0.9-32L246.8,331.1L246.8,331.1z M273.1,380.6h32v18h-32V380.6z M210.6,413h32v18h-32V413z"/>
</svg>
