<svg xmlns="http://www.w3.org/2000/svg" viewBox="0 0 512 512" fill="#fff">
	<path d="M339,46.8c11.9,14.7,32.8,53.3,40.7,75.4c18.8,77-24.5,188-70.7,233.6l1.9-19.3c6.5-12.4,10.8-24.1,13.4-35.1
		c9.8-4.4,17.9-10.7,24.2-17l-12.8-12.6c-23.4,23.8-54.8,23.7-79.6-6.5c-25.3,30.3-55.9,30.4-79.7,6.5l-12.8,12.6
		c6.3,6.3,14.5,12.6,24.2,17c2.6,10.9,6.9,22.6,13.4,35.1l1.9,19.3c-46-45.3-89.6-156.8-70.7-233.6c8.1-22.1,28.8-60.7,40.7-75.4
		C224.2,62.3,288,62.3,339,46.8L339,46.8z M377.8,75c40.8,33.9,84.1,77,110.2,103.2c-2.3,71.7-24.7,130.7-86.7,142.2L388.4,247
		c8.3-36.7,23.1-90.7,8.2-131.2C391.9,103.5,384.6,88,377.8,75L377.8,75z M134.3,75c-9.9,20.6-23.2,43.9-25,65
		c0,38.6,5.3,74.6,14.4,107c0,0-12.9,73.4-12.9,73.4c-62-11.5-84.4-70.5-86.7-142.2C50.2,152,93.6,108.9,134.3,75L134.3,75z
		 M324.9,122.8c-33.7,0.2-33.7,51.6,0,51.8C358.6,174.4,358.6,123,324.9,122.8z M187.2,122.8c-33.7,0.2-33.7,51.6,0,51.8
		C220.9,174.4,220.9,123,187.2,122.8z M256.1,191.8c-17.3,0-51.7,17.3-51.7,34.5c0,0,18.2,34.6,34.4,34.6c8.1,0,9.2-17.3,17.3-17.3
		c8,0,9.1,17.3,17.2,17.3c16.2,0,34.4-34.6,34.4-34.6C307.7,209.1,273.3,191.8,256.1,191.8L256.1,191.8z M265.1,296.7
		c10.3,6.5,20.7,9.7,30.6,10.2l-10.1,100.7c-14.8,7.4-44.2,7.5-59.1,0l-10.1-100.7c9.9-0.5,20.4-3.7,30.7-10.2v67.8h18L265.1,296.7z
		 M368.7,299.8c14.9,46.9,35.4,143.3,38.1,187.2H105.4c2.7-43.9,23.1-140,38.1-187.1c14.6,31.8,38.2,63.9,62.4,83l2.7,27V409
		c-0.9,29.8,95.8,29.8,94.9,0v0.9l2.7-27C330.5,363.9,354,331.6,368.7,299.8z"/>
</svg>
