<svg xmlns="http://www.w3.org/2000/svg" viewBox="0 0 512 512" fill="#fff">
	<path d="M45.3,99.5c-18.7,0.7-23.9,7.9-20.4,30.5c6.5,34.2,30.5,54.7,66.4,69.1c9.2,3.6,18.3,7.4,28.6,6.5
		c29.2,1,57.9,5.2,88.2,16.8c1.1-3,2.6-5.8,4.6-8.3c0-1.3,0-2.6,0.1-4C181.9,170.7,91.4,102.5,45.3,99.5z M466.7,99.5
		c-46,3-136.6,71.2-167.5,110.6c0.1,1.4,0.1,2.7,0.1,4c2,2.5,3.5,5.3,4.6,8.3c30.3-11.6,59-15.8,88.2-16.8
		c10.3,0.9,19.6-2.9,28.6-6.5c35.9-14.4,59.9-34.9,66.4-69.1C490.6,107.4,485.4,100.2,466.7,99.5z M195.6,131.7
		c0.2,17.9,12.7,32.4,24.4,45.1c2.5-5.1,5.9-10.2,10.5-15.1c-7.6-8-17.3-21.4-16.9-30H195.6z M298.4,131.7c0.4,8.6-9.3,22-16.9,30
		c4.6,4.9,8,10,10.5,15.1c11.7-12.7,24.2-27.2,24.4-45.1H298.4z M256,162.5c-15.8,12-26.1,27.6-25.2,46h50.4
		C282.1,190.1,271.8,174.5,256,162.5z M113.5,223.7c-12.9,0.1-22.8,1.4-26.4,2.4c-7,2-5.9,4.3-2.6,11
		c20.3,29.8,80.9,60.3,117.3,38.2c2-8,5-15.7,9-23c-1.8-3.5-3.2-7.2-3.9-11.1C175.6,228.4,144.8,223.7,113.5,223.7z M392.7,223.7
		c-28.9,0.6-58.3,5.5-87.6,17.5c-0.7,3.9-2.1,7.6-3.9,11.1c4,7.3,7,15,9,23c25.4,15.2,58,5.2,83.2-8.6
		c18.2-11.2,34.5-23.4,36.5-37.4C426.9,223.5,405.4,223.9,392.7,223.7z M226,226.5c-8.1,16.3,10,33.8,30,33.4
		c20,0.4,38.1-17.1,30-33.4H226z M223.7,267.3c-18.7,37.8,2.4,106.8,32.3,128.2c29.9-21.5,51-90.4,32.3-128.2
		C272.2,281.2,239.8,281.2,223.7,267.3L223.7,267.3z M198.5,302.5c-8.9,2.8-22.5,7.4-33.7,11.6c0.8,18.7-3.7,70.9-18,85.6l12.8,12.8
		c18.7-19,21.8-61.4,22.9-85.5c6.3-2.2,11.9-4.1,17.2-5.8C198.9,315,198.5,308.8,198.5,302.5L198.5,302.5z M313.5,302.5
		c0,6.3-0.4,12.6-1.2,18.7c5.3,1.8,10.8,3.6,17.1,5.8c1.2,24.2,4.2,66.4,23,85.5l12.8-12.8c-14.3-14.8-18.9-66.9-18.1-85.6
		C335.9,309.9,322.4,305.5,313.5,302.5L313.5,302.5z"/>
</svg>
