<svg xmlns="http://www.w3.org/2000/svg" viewBox="0 0 512 512" fill="#fff">
	<path d="M123.9,20.4c-10.3,0.5-21.3,3.1-32.2,5.4l62.5,65.6c-38.6-0.4-88.9,2.3-125.2,22.5l31.8,51.6l-40.6,21.1v56.6
		l46.5,26.3l-46.5,40.1v32.3c39.1,0.8,83.7-3.5,121-19.6c-32.8,32.6-45.8,67.6-72.6,113.3c36.5-1.6,77.4-12.6,112.8-34.5l-9.7,77.1
		c47.2-20.5,109.1-71.4,104.5-122.5c-49.8-36-52.5-93-32.6-155.3c-81.4-6.9-93.4-109.6-21.6-120.5c20.6-1.2,44.5,10,70,36.1
		c11.4,4.1,21.7,8,31.1,11.9c4.8-43.9-16.1-67.6-51.5-91.5l4.3,42.9c-42.1-29.5-99.2-60.7-151.9-58.7V20.4L123.9,20.4z M224.3,98.4
		c-46.7,2.7-46.8,89.5,43.4,86.5c-26.2,65.1-29,135.3,34.4,163.6c0,0,108.6,38.5,108.6,38.5c5.6-11.9,11.7-23.8,18-35.7
		c-26.1,12-57.7-8.6-57.1-37.4c-0.1-50.1,74.8-54.7,81.2-5.5c10.7-18.1,21.9-36,33.5-53.7c0,0-103.2-52.4-103.2-52.4l-4.7-5.7
		c-3.9-13.6-11.5-23.3-26.4-33.3c-14.7-10.1-39.6-20.6-69.9-31.4C260,107.8,237.5,97.5,224.3,98.4L224.3,98.4z M343.3,188.4
		c19.2-0.1,19.2,29.5,0,29.3C324.1,217.8,324,188.3,343.3,188.4L343.3,188.4z"/>
</svg>
