<svg xmlns="http://www.w3.org/2000/svg" viewBox="0 0 512 512" fill="#fff">
	<path d="M240.1,23.6c-29.5,1.5-42,22.8-45.4,53.7c-36.4,8.4-75.9,48.2-93.4,94.4c29.5,11.1,58.9,14.2,84.3,11.4
		C118,292,145,412.4,258.2,389.2c101.3,47.9,171.6-32.8,126.1-115.9c-25.9-48.1-45.7-82.4,3.8-108.8l-8.4-16.7
		c-59.4,31.1-43.9,81.9-11.5,135.2c32,59.9-7.2,122.9-85.2,95.7c53.1-35.3,41.4-134.7-19.9-220.2c66.3,26.5,90.3-77.5,20.7-83.1
		C289.8,49.7,267,22.1,240.1,23.6L240.1,23.6z M99.6,360.2c-187.9,58.9-20,133.8,155.2,130.6c174.8,3.2,342.8-71.3,155.7-130.6
		c85.1,51.7-45.5,89.3-155.7,89C144.4,449.5,14.8,411.7,99.6,360.2L99.6,360.2z"/>
</svg>
