<svg xmlns="http://www.w3.org/2000/svg" viewBox="0 0 512 512" fill="#fff">
	<path class="st0" d="M163.2,22c-7.3,27-10.2,53-7.9,78.4c-54.3,25.6-10.5,119,1.9,140.7c13.6,25.3-13.8,40.6-25.8,11.6
		c-12.5-25.5-26-89-69.1-83.5C50.4,151,40.4,133,32.1,112.9c-7.6,29.4-8.1,53.2-0.9,72.2c-37.5,37.1,26.9,100.5,46.5,118.7
		c31.5,27.3,48.9,57.6,59.7,93.8L122.2,444l23.1-12.4l-15.7,47.1l17.4-10.4c-1.5,10.7-4.9,19.8-9.8,29.2h220.1
		c-6.8-11.4-13.6-21.5-17.4-32.3l18.6,13.6l-12.8-58.2l15.3,16.9l0.6-48.2c21.9-29.9,46-51.8,71.2-71.3
		c17.3-16.5,76.5-72.9,44.9-106.5c6.9-20.7,10.2-40.7,10.2-61.4l-39,43c-45.7-15.9-61.8,38.6-80.6,64.8
		c-14.4,18.9-30.8,6.8-21.9-9.7c13.5-26,63.6-128,1.2-151.6c1.6-23.2-7.4-49.8-16.2-74.3c-5.5,21.3-13.4,46.4-21.4,69.7
		c-64.1,3.4-48.4,110.1-48.2,136.2c1,30.6-32.7,23.3-31,0c0.4-31.5,24.2-125.1-36.3-134C187.9,68.8,176.2,45.8,163.2,22L163.2,22z
		 M320.4,114.4c23.6,0.1,46.1,24.7,29.7,68.6c-20.8,55.7-73,39-69.2-21.8C283,129.2,302.1,114.4,320.4,114.4L320.4,114.4z
		 M177.7,118.2c17.9-0.4,38.1,16.8,40.2,49.2c3.6,55.3-52.7,63.8-64.8,15.3C142.3,139.1,158.7,118.6,177.7,118.2L177.7,118.2z
		 M65.2,191.3c9.8-0.2,20.6,5.6,27.6,18.3c30,54.4-16.4,80.4-39.6,41C31.4,213.6,46.5,191.7,65.2,191.3z M435.9,213.8
		c101.7,23-87.5,148.2-24.7,16.3C417.4,218.9,426.7,214,435.9,213.8L435.9,213.8z M253.5,266.4c157.5,12.4,131.3,152.9-0.4,102.3
		C120.5,422.6,84.5,275.7,253.5,266.4z"/>
</svg>
