<svg xmlns="http://www.w3.org/2000/svg" viewBox="0 0 512 512" fill="#fff">
<path d="M327.4,335c-2.9,78.6-74.7,139.7-74.7,139.7l-56.6-22.4c-26.4-10.5-36.2-27.3-48.1-53.1l-0.1-0.1l90.4,26
	l-55.2-26.4c-39.7-19-56.3-45.1-73.5-85.7l128.7,49.8l-120.8-72.9c-27.4-16.6-35.5-35.1-49-64.2l154.2,65.8l-75.6-49.3
	C65.6,190.9,58.3,161,30.5,101l173.2,109C253,240.9,329.6,276.9,327.4,335L327.4,335z"/>
<path d="M399.4,228.7c17.3,9.3,28.9,8.9,38.9,2.9c19.9-11.9,36.5-36.1,43.3-57.1l-22.3-12.6l-1.4-5.7
	c-6.1-24.1-12.5-38.5-22.1-49.5c-9.6-10.9-23.6-19.5-46.8-29.6l-9.7-4.2l1.7-10.5c1.3-8.4,0.1-17.4-1.8-26.9
	C324.2,80.9,305.6,144,142,157.9l91.6,52.4c23.8,14.2,50.8,30.3,71.7,49.5c12,11,20.9,21.9,27.1,33.4c7.2,13,10.8,27.6,10.3,42.4
	c-0.7,19.8-5.5,40.1-14.1,60.4c-7.3,16.8-16.4,32.7-27.3,47.4c-8.5,11.7-17.9,22.7-28,32.9c72.8-37.7,130.8-118.2,97.4-178
	c-11.3-20.2-23-25.2-22.8-33.6C348.5,245.8,399.4,228.7,399.4,228.7z M415.5,149.9l14.2-22.3l13.4,25.3L415.5,149.9z"/>
</svg>
