<svg xmlns="http://www.w3.org/2000/svg" viewBox="0 0 512 512" fill="#fff">
	<path d="M221.4,138.4C178,138.4,152,169,215,169C258.5,169,284.4,138.4,221.4,138.4z M358.1,155.8
		c-43.1,0-74.5,9.9-82.9,27.5c-83.6-2.5-152.9,26.7-134.9,46.7c2.3,2.6,0.3,5.6-5.2,5.8c-139,6.8-164.8,69.4-31,88.8
		c5.7,0.8,6.8,4.9,4.1,7.6c-32.5,32,38.4,55.5,143.7,55.5c107.5,0,165.7-18.5,147.2-48.5c-4.1-6.6-2-11.3,7-12.2
		c142.2-14.8,106.2-95.1-16.3-102.8c-25-1.6-19-13.4-9.9-14.6C481.8,196.5,419.7,155.8,358.1,155.8z M451.7,359.1
		c-35.6,0.7-53.4,24.4,1.4,28.2C503.9,390,508.6,357.9,451.7,359.1L451.7,359.1z M107.4,399.4c-68.4,0-99.2,49.3,0,49.3
		C175.7,448.7,206.5,399.4,107.4,399.4z"/>
</svg>
