<svg xmlns="http://www.w3.org/2000/svg" viewBox="0 0 512 512" fill="#fff">
	<path class="st0" d="M173.8,186.4c-23,60.3-23.4,138.9,14.9,193.7l-14.9,16.8l82,93.1l82-93.1l-15-17.1
		c38.1-54.8,37.7-133.2,14.7-193.5l154.5-51.7L491.2,87L290,167.2c31.9,38.1,33.6,138.6,4.4,180.4l-38.6-43.7l-38.8,43.9
		c-29.2-41.7-27.7-142.4,4.3-180.6L20.2,87h0l-0.9,47.7L173.8,186.4z M493.5,153.9l-132.3,44.3c2.6,8.5,4.7,17.2,6.4,26l123.5-12.4
		C492.7,192.7,493.5,173.3,493.5,153.9z M19.3,154.4c0.1,19.2,0.8,38.5,2.4,57.4L143.8,224c1.7-8.7,3.8-17.3,6.4-25.8L19.3,154.4
		L19.3,154.4z M23.7,230.8c2.1,17.5,5.1,34.5,9.2,50.8l106.1-9.8c0-9.8,0.6-19.5,1.8-29.2L23.7,230.8L23.7,230.8z M489.1,230.8
		l-118.6,11.8c1.2,9.6,1.8,19.2,1.8,28.9l107.6,10C484,265.4,487,248.3,489.1,230.8L489.1,230.8z M371.6,290.2
		c-0.6,7.2-1.5,14.5-2.7,21.6l88,30.2c7.1-12.9,13-27.1,17.8-42.2L371.6,290.2L371.6,290.2z M139.8,290.4l-101.6,9.4
		C43,314.9,48.9,329.1,56,342l86.6-29.7C141.3,305.1,140.4,297.8,139.8,290.4L139.8,290.4z M364.8,330.2c-2,7.6-4.5,15-7.3,22.3
		l54.8,41.5c13.4-9.8,24.8-21.8,34.5-35.7L364.8,330.2L364.8,330.2z M146.7,330.7l-80.6,27.6c9.6,13.9,21,25.9,34.5,35.7l53.7-40.6
		C151.3,346,148.8,338.4,146.7,330.7L146.7,330.7z M254.9,333.1v66.6h55.6l-54.7,62l-57.1-64.8L254.9,333.1L254.9,333.1z"/>
</svg>
