<svg xmlns="http://www.w3.org/2000/svg" width="64" height="64" viewBox="0 0 64 64" fill="#e4640a">
  <path d="m63.97,30.29c-.11-.53-.78-.7-1.5-.7l-4.1.19c-13.88,0-18.72-7.5-23.4-14.75-3.5-5.43-6.81-10.55-13.58-11.84-.97-.18-1.92-.27-2.83-.27-3.64,0-6.81,1.48-9.16,4.29-.13.15-.25.31-.37.46l-6.92-1.24c-.37,0-.71.2-.87.53-.21.44-.08.81.09,1,.27.32,2.25,2.17,2.25,2.17l-2.6-.11c-.38,0-.71.2-.88.53-.12.24-.13.54-.02.77.09.2.24.37.43.48l5.14,4.01c-.09.49-.16,1-.22,1.51-.73,6.15.64,12.82,3.76,18.31,2.53,4.46,7.41,10.23,16.23,12.35.64.16,1.28.29,1.92.41l.6,8.35c-.82-.21-1.64-.24-2.07-.24-1.91,0-4.03.57-4.27,2.17-.09.58.08,1.15.48,1.61.45.52,1.12.82,1.81.82h11.7c1.27,0,2.3-1.02,2.3-2.28v-9.89c5.07-.51,10.09-2.15,14.45-4.84,4.87-3,9.14-7.07,11.43-11.95.2-.42.3-1.38.21-1.83Zm-32.46,18.69c.75.05,1.43.09,2.13.1l.58,7.67c-.82-.21-1.66-.24-2.09-.24-.2,0-.43,0-.62.02v-7.55Zm-4.47-30.86c.16-.57.96-.5,1.22.1,3.57,8.09,12.49,15.76,22.32,16.26.27.01.69.48.41,1.04-.89,1.79-2.99,2.02-4.93,1.37-1.75,3.04-4.86,2.86-7.75.83-10.74,3.46-14.11-9.23-11.27-19.6Zm-11.49-4.87c0-1.73,1.4-3.13,3.13-3.13s3.13,1.4,3.13,3.13-1.4,3.13-3.13,3.13-3.13-1.41-3.13-3.13Z"/>
</svg>
